<?xml version="1.0" standalone="no"?>
<!DOCTYPE svg PUBLIC "-//W3C//DTD SVG 20010904//EN"
 "http://www.w3.org/TR/2001/REC-SVG-20010904/DTD/svg10.dtd">
<svg version="1.0" xmlns="http://www.w3.org/2000/svg"
 width="512.000000pt" height="512.000000pt" viewBox="0 0 512.000000 512.000000"
 preserveAspectRatio="xMidYMid meet">
<metadata>
Created by potrace 1.14, written by Peter Selinger 2001-2017
</metadata>
<g transform="translate(0.000000,512.000000) scale(0.100000,-0.100000)"
fill="#000000" stroke="none">
<path d="M2470 5022 c-911 -42 -1718 -559 -2123 -1359 -208 -412 -301 -886
-260 -1328 55 -599 298 -1127 708 -1540 531 -535 1273 -802 2015 -725 837 87
1578 591 1955 1330 221 435 314 915 266 1378 -111 1066 -865 1931 -1896 2175
-208 50 -481 78 -665 69z m1436 -1336 c315 -57 488 -129 615 -256 84 -84 115
-145 125 -249 16 -154 -79 -324 -249 -444 l-59 -41 54 -26 c159 -78 242 -165
289 -302 30 -90 24 -270 -14 -375 -68 -192 -239 -350 -505 -467 -89 -39 -234
-84 -297 -92 -22 -3 -46 -7 -54 -10 -23 -7 -132 -17 -206 -18 l-70 -1 -77 140
c-42 77 -81 147 -87 155 -7 10 -10 -21 -10 -102 l-1 -118 -195 -1 c-107 -1
-202 -1 -210 -1 -8 0 -76 0 -150 1 l-135 1 0 706 c0 667 -1 705 -17 700 -38
-11 -216 -46 -220 -43 -5 6 -91 681 -87 686 13 15 437 99 634 126 176 23 189
25 275 31 44 3 81 7 83 9 6 6 535 -3 568 -9z m-3021 -56 c160 -12 292 -24 294
-26 3 -3 -6 -143 -19 -312 -12 -169 -24 -325 -25 -347 -1 -22 -5 -74 -8 -115
-12 -137 -21 -344 -21 -440 1 -208 82 -308 251 -313 134 -3 217 43 254 142 18
49 19 70 15 255 -3 110 -8 228 -11 261 -18 186 -62 851 -56 857 10 10 674 60
681 51 7 -7 30 -305 66 -848 35 -535 15 -736 -93 -935 -142 -262 -374 -424
-673 -471 -118 -18 -327 -6 -426 24 -190 59 -301 122 -416 239 -214 217 -299
471 -284 843 9 219 55 930 72 1102 l5 62 52 -4 c29 -2 183 -14 342 -25z"/>
<path d="M3443 3002 l-83 -3 0 -124 c0 -71 4 -125 9 -125 61 0 269 62 324 97
43 27 79 78 75 107 -6 37 -128 55 -325 48z"/>
<path d="M3590 2254 c-41 -6 -91 -14 -111 -18 -20 -3 -42 -7 -50 -10 -8 -2
-26 -7 -41 -10 l-28 -6 0 -126 0 -126 33 5 c51 7 216 54 286 81 166 66 259
169 189 208 -30 16 -183 17 -278 2z"/>
</g>
</svg>
